# xmcd
# 
# Track frame offsets:
#     150
#     12593
#     26060
#     40449
#     53477
#     68911
#     81501
#     94351
#     108846
#     122894
#     134551
#     148510
#     162612
#     174045
#     187324
#     201371
#     213037
#     225266
#     237980
#     250656
# 
# Disc length: 3542
# 
# Revision: 2
# Processed by: cddbd v1.5.2PL0 Copyright (c) Steve Scherf et al.
# Submitted via: fre:ac v1.0.31
# 
DISCID=200dd414
DTITLE=Little Walter - Blowin' The Blues Disc 1
DYEAR=2008
DGENRE=Blues
TTITLE0=Juke
TTITLE1=Blue Midnight
TTITLE2=Crazy Legs
TTITLE3=Tell Me Mama
TTITLE4=Off The Wall
TTITLE5=Tonight With A Fool
TTITLE6=Driftin' Blues
TTITLE7=Fast Boogie
TTITLE8=That's It
TTITLE9=My Kind Of Baby
TTITLE10=Blues With A Feeling
TTITLE11=Too Late
TTITLE12=You're So Fine
TTITLE13=Come Back Baby
TTITLE14=Rocker
TTITLE15=I Love You So
TTITLE16=Oh Baby
TTITLE17=I Got To Find My Baby
TTITLE18=Big Leg Mamma
TTITLE19=My Babe (Mercy Babe)
EXTD=
EXTT0=
EXTT1=
EXTT2=
EXTT3=
EXTT4=
EXTT5=
EXTT6=
EXTT7=
EXTT8=
EXTT9=
EXTT10=
EXTT11=
EXTT12=
EXTT13=
EXTT14=
EXTT15=
EXTT16=
EXTT17=
EXTT18=
EXTT19=
PLAYORDER=
